<?xml version="1.0" encoding="UTF-8" standalone="no"?>
<svg width="363px" height="95px" viewBox="0 0 363 95" version="1.1" xmlns="http://www.w3.org/2000/svg" xmlns:xlink="http://www.w3.org/1999/xlink">
    <defs></defs>
    <g id="Page-1" stroke="none" stroke-width="1" fill="none" fill-rule="evenodd">
        <g>
            <path d="M0.4356,73.8627342 L0.4356,0.5553 L14.4821496,0.5553 L14.4821496,26.959862 C18.8184004,22.0273011 23.9384421,19.5525538 29.8773519,19.5525538 C36.3472558,19.5525538 41.6886459,21.9075553 45.9390183,26.5849003 C50.1712475,31.2610357 52.2879668,37.9861555 52.2879668,46.75905 C52.2879668,55.8222375 50.1204462,62.8195069 45.8023387,67.7182003 C41.4842312,72.6168936 36.2444437,75.0577734 30.082976,75.0577734 C27.0445766,75.0577734 24.058188,74.3066405 21.1044573,72.7874407 C18.1519362,71.268241 15.6094539,69.0329854 13.4758008,66.062321 L13.4758008,73.8627342 L0.4356,73.8627342 L0.4356,73.8627342 Z M14.3805471,46.1615304 C14.3805471,51.6577434 15.2502164,55.7194254 16.9750402,58.3647199 C19.4147105,62.103451 22.6405908,63.9637449 26.6865486,63.9637449 C29.7757493,63.9637449 32.4210438,62.6320261 34.6054981,59.9867317 C36.7899525,57.3414372 37.8821797,53.1587998 37.8821797,47.4581722 C37.8821797,41.3995166 36.7730187,37.0124646 34.5716306,34.3333027 C32.3871762,31.6529312 29.5701252,30.3054881 26.1228965,30.3054881 C22.7603366,30.3054881 19.9614289,31.6190637 17.7249637,34.2304906 C15.489708,36.8588512 14.3805471,40.8189308 14.3805471,46.1615304 L14.3805471,46.1615304 Z M77.0366495,73.8627342 L62.9900999,73.8627342 L62.9900999,20.7645268 L76.0303006,20.7645268 L76.0303006,28.3085146 C78.2655563,24.7415401 80.2794635,22.3853291 82.0550887,21.2592344 C83.8476476,20.1331397 85.8615549,19.5525538 88.130678,19.5525538 C91.3396245,19.5525538 94.4118915,20.4403664 97.3825559,22.214782 L93.0293714,34.4530485 C90.6743699,32.9338488 88.4729818,32.165782 86.4409312,32.165782 C84.462101,32.165782 82.8062217,32.6943571 81.4406353,33.7865843 C80.0581152,34.8618777 78.9997555,36.8249837 78.214755,39.6589685 C77.4297545,42.4917438 77.0366495,48.4318631 77.0366495,57.4599735 L77.0366495,73.8627342 L77.0366495,73.8627342 Z M131.893548,73.8627342 L131.893548,0.5553 L145.940098,0.5553 L145.940098,73.8627342 L131.893548,73.8627342 L131.893548,73.8627342 Z M160.345885,73.8627342 L160.345885,0.5553 L174.392435,0.5553 L174.392435,73.8627342 L160.345885,73.8627342 L160.345885,73.8627342 Z M227.747067,36.9616633 L214.99716,34.6574631 C216.431691,29.5204876 218.888295,25.7309552 222.387534,23.2562079 C225.903707,20.7983943 231.092694,19.5525538 237.98836,19.5525538 C244.269574,19.5525538 248.928776,20.3036868 252.001043,21.7878094 C255.056376,23.2731416 257.223896,25.1503693 258.469737,27.4376358 C259.715577,29.7249022 260.346965,33.9063301 260.346965,40.0169965 L260.193351,56.4197572 C260.193351,61.0789588 260.415909,64.5261875 260.876749,66.7457189 C261.319446,68.9471071 262.173391,71.3371856 263.402298,73.8627342 L249.492428,73.8627342 C249.13319,72.9241203 248.67235,71.5416002 248.143775,69.7151738 C247.921217,68.879372 247.75067,68.3326537 247.649068,68.0592945 C245.242055,70.3973622 242.68143,72.1391198 239.950257,73.3160158 C237.220294,74.4771876 234.30164,75.0577734 231.195506,75.0577734 C225.73316,75.0577734 221.415053,73.5724412 218.275051,70.6199201 C215.116905,67.6504653 213.546904,63.8948004 213.546904,59.3553445 C213.546904,56.3677463 214.26296,53.6885844 215.697491,51.3323734 C217.130813,48.9773719 219.14472,47.1860226 221.722279,45.9389725 C224.299839,44.6931319 228.03736,43.6009048 232.902186,42.6622909 C239.455549,41.4333841 244.013148,40.2734219 246.538697,39.2150623 L246.538697,37.8156084 C246.538697,35.1013694 245.873442,33.1890647 244.541724,32.0291024 C243.211214,30.886074 240.70139,30.3054881 236.997736,30.3054881 C234.489121,30.3054881 232.542949,30.8001957 231.143495,31.7896108 C229.744041,32.7633017 228.617946,34.486916 227.747067,36.9616633 L227.747067,36.9616633 Z M246.538697,48.3629185 C244.747348,48.9604382 241.896429,49.6777036 237.98836,50.5135054 C234.096016,51.3505167 231.553534,52.1693847 230.341561,52.9543852 C228.515134,54.2691703 227.593454,55.9069063 227.593454,57.9038798 C227.593454,59.8839196 228.327653,61.5736664 229.794842,63.0069878 C231.263241,64.4415187 233.123535,65.1575746 235.393867,65.1575746 C237.93635,65.1575746 240.343362,64.3217729 242.647562,62.6658936 C244.354243,61.4031193 245.463404,59.8500521 245.993188,58.0066919 C246.36815,56.8116526 246.538697,54.5243862 246.538697,51.1618263 L246.538697,48.3629185 L246.538697,48.3629185 Z M322.508359,73.8627342 L308.46181,73.8627342 L308.46181,46.75905 C308.46181,41.0233454 308.154583,37.3196913 307.557063,35.6299445 C306.959544,33.9571314 305.968919,32.6435558 304.621476,31.704942 C303.272823,30.7832619 301.650812,30.3054881 299.75665,30.3054881 C297.31577,30.3054881 295.131316,30.9707428 293.202078,32.3024616 C291.274049,33.6499047 289.94233,35.4085961 289.226274,37.6099842 C288.509008,39.8125819 288.15098,43.8742639 288.15098,49.8143832 L288.15098,73.8627342 L274.103221,73.8627342 L274.103221,20.7645268 L287.143422,20.7645268 L287.143422,28.5637305 C291.78569,22.5558762 297.622997,19.5525538 304.655344,19.5525538 C307.744544,19.5525538 310.594253,20.1149964 313.154879,21.2253669 C315.715505,22.3514616 317.660467,23.7678492 318.975252,25.5096068 C320.290038,27.2501549 321.211718,29.2132609 321.723359,31.4146491 C322.251934,33.6160372 322.508359,36.7572487 322.508359,40.8527983 L322.508359,73.8627342 L322.508359,73.8627342 Z M361.099177,20.7645268 L361.099177,31.9601579 L351.507415,31.9601579 L351.507415,53.364424 C351.507415,57.6994652 351.592083,60.2250138 351.780774,60.9422792 C351.968255,61.6595447 352.377084,62.238921 353.026614,62.7179044 C353.674935,63.1787444 354.476869,63.4170266 355.398549,63.4170266 C356.713335,63.4170266 358.590562,62.9561865 361.06531,62.0683739 L362.260349,72.9579879 C358.982458,74.3574417 355.295737,75.0577734 351.148177,75.0577734 C348.622628,75.0577734 346.335362,74.6308009 344.304521,73.7949992 C342.27368,72.9410541 340.788348,71.8318932 339.8328,70.4832405 C338.877253,69.1345879 338.227722,67.3081615 337.85276,65.0039613 C337.562467,63.3831591 337.408854,60.0714004 337.408854,55.1049721 L337.408854,31.9601579 L330.957093,31.9601579 L330.957093,20.7645268 L337.408854,20.7645268 L337.408854,10.1990734 L351.507415,2.0067647 L351.507415,20.7645268 L361.099177,20.7645268 L361.099177,20.7645268 Z" id="Shape" fill="#FFFFFF"></path>
            <path d="M201.880757,81.159973 L201.880757,94.1663062 L187.834207,94.1663062 L187.834207,81.159973 L201.880757,81.159973 L201.880757,81.159973 Z M201.880757,20.858872 L201.880757,73.9570794 L187.834207,73.9570794 L187.834207,20.858872 L201.880757,20.858872 L201.880757,20.858872 Z" id="Shape" fill="#B0CB1F"></path>
            <path d="M103.407344,13.6124345 L103.407344,0.606101264 L117.453894,0.606101264 L117.453894,13.6124345 L103.407344,13.6124345 L103.407344,13.6124345 Z M103.407344,73.9135354 L103.407344,20.8153281 L117.453894,20.8153281 L117.453894,73.9135354 L103.407344,73.9135354 L103.407344,73.9135354 Z" id="Shape" fill="#66C3D0"></path>
        </g>
    </g>
</svg>
