<svg xmlns="http://www.w3.org/2000/svg" style="position:absolute; width: 0; height: 0"><symbol viewBox="0 0 747 194" id="icon-logo"><g fill="none" fill-rule="evenodd"><path d="M.862 151.891V.84h28.957v54.407c8.94-10.164 19.495-15.263 31.738-15.263 13.338 0 24.35 4.852 33.112 14.49 8.725 9.636 13.089 23.493 13.089 41.57 0 18.674-4.469 33.092-13.37 43.186-8.903 10.094-19.705 15.123-32.407 15.123-6.264 0-12.42-1.547-18.51-4.678-6.086-3.13-11.328-7.736-15.726-13.857v16.073H.862zM29.61 94.812c0 11.325 1.793 19.694 5.349 25.145 5.03 7.704 11.68 11.537 20.02 11.537 6.369 0 11.822-2.744 16.326-8.195 4.503-5.45 6.755-14.069 6.755-25.815 0-12.484-2.287-21.524-6.825-27.044-4.504-5.523-10.311-8.3-17.418-8.3-6.932 0-12.702 2.707-17.312 8.088-4.608 5.416-6.895 13.576-6.895 24.584zm129.168 57.08h-28.957V42.481h26.883v15.544c4.608-7.35 8.76-12.205 12.42-14.525 3.695-2.32 7.847-3.517 12.525-3.517 6.616 0 12.95 1.83 19.073 5.486l-8.974 25.217c-4.855-3.13-9.393-4.713-13.582-4.713-4.08 0-7.493 1.089-10.309 3.34-2.85 2.215-5.032 6.26-6.65 12.1-1.618 5.837-2.429 18.076-2.429 36.679v33.798zm113.09 0V.84h28.958V151.89h-28.958zm58.656 0V.84h28.958V151.89h-28.958zm138.95-76.036l-26.284-4.748c2.957-10.585 8.022-18.393 15.236-23.493 7.248-5.064 17.946-7.631 32.161-7.631 12.95 0 22.554 1.548 28.888 4.606 6.299 3.06 10.767 6.928 13.336 11.641 2.568 4.713 3.87 13.33 3.87 25.92l-.317 33.799c0 9.6.459 16.703 1.409 21.276.912 4.536 2.673 9.461 5.206 14.665h-28.676c-.74-1.934-1.69-4.783-2.78-8.546-.459-1.722-.81-2.849-1.02-3.412-4.962 4.818-10.24 8.407-15.871 10.832-5.628 2.392-11.645 3.588-18.048 3.588-11.261 0-20.163-3.06-26.637-9.144-6.51-6.118-9.747-13.857-9.747-23.21 0-6.157 1.476-11.677 4.434-16.532 2.955-4.853 7.106-8.544 12.42-11.113 5.314-2.567 13.019-4.818 23.048-6.752 13.51-2.532 22.906-4.922 28.112-7.103v-2.884c0-5.592-1.371-9.533-4.117-11.923-2.743-2.355-7.917-3.551-15.552-3.551-5.172 0-9.184 1.019-12.069 3.058-2.885 2.006-5.206 5.557-7.002 10.657zm38.74 23.492c-3.693 1.231-9.57 2.71-17.627 4.432-8.024 1.724-13.265 3.412-15.764 5.029-3.765 2.71-5.665 6.084-5.665 10.199 0 4.08 1.513 7.561 4.538 10.515 3.027 2.955 6.862 4.43 11.543 4.43 5.241 0 10.203-1.721 14.953-5.133 3.519-2.602 5.805-5.802 6.898-9.6.773-2.463 1.124-7.176 1.124-14.105v-5.767zm156.615 52.543h-28.958V96.043c0-11.818-.633-19.45-1.865-22.931-1.232-3.447-3.274-6.154-6.052-8.088-2.78-1.899-6.124-2.883-10.029-2.883-5.032 0-9.535 1.37-13.512 4.114-3.975 2.777-6.72 6.4-8.196 10.937-1.48 4.538-2.217 12.907-2.217 25.147v49.552h-28.96V42.481h26.883v16.07c9.57-12.379 21.604-18.567 36.101-18.567 6.369 0 12.244 1.159 17.522 3.447 5.28 2.32 9.289 5.239 12 8.828 2.71 3.586 4.61 7.631 5.665 12.167 1.09 4.536 1.618 11.009 1.618 19.448v68.017zm79.557-109.41v23.07h-19.774v44.103c0 8.932.174 14.136.563 15.614.387 1.478 1.23 2.672 2.569 3.659 1.336.95 2.99 1.44 4.89 1.44 2.71 0 6.58-.95 11.682-2.778l2.463 22.438c-6.757 2.883-14.357 4.326-22.908 4.326-5.206 0-9.922-.88-14.108-2.601-4.187-1.76-7.249-4.046-9.219-6.824-1.97-2.78-3.309-6.543-4.082-11.29-.598-3.34-.915-10.164-.915-20.398V65.55h-13.3V42.481h13.3v-21.77l29.065-16.88v38.65h19.774z" fill="#000"></path><path d="M416.15 166.927v26.8h-28.958v-26.8h28.958zm0-124.251v109.41h-28.958V42.675h28.958z" fill="#B0CB1F"></path><path d="M213.143 27.744V.944H242.1v26.8h-28.957zm0 124.252V42.586H242.1v109.41h-28.957z" fill="#66C3D0"></path></g></symbol></svg>