<?xml version="1.0" encoding="UTF-8" standalone="no"?>
<svg width="747px" height="194px" viewBox="0 0 747 194" version="1.1" xmlns="http://www.w3.org/2000/svg" xmlns:xlink="http://www.w3.org/1999/xlink">
    <defs></defs>
    <g id="Page-1" stroke="none" stroke-width="1" fill="none" fill-rule="evenodd">
        <g id="Shape-+-Shape-+-Shape-+-Shape">
            <g id="Shape-+-Shape-+-Shape">
                <path d="M0.861896774,151.891077 L0.861896774,0.839784615 L29.8194742,0.839784615 L29.8194742,55.2468615 C38.7588452,45.0832308 49.3140355,39.9839692 61.5573581,39.9839692 C74.8953484,39.9839692 85.9068581,44.8364923 94.6691871,54.4742462 C103.394113,64.1095077 107.757823,77.9667385 107.757823,96.0434462 C107.757823,114.718308 103.289384,129.136308 94.3874161,139.230154 C85.4854484,149.324 74.6833968,154.353477 61.9812613,154.353477 C55.7174677,154.353477 49.5608968,152.805754 43.4716516,149.675415 C37.3849,146.545077 32.1434613,141.939292 27.7448419,135.818185 L27.7448419,151.891077 L0.861896774,151.891077 L0.861896774,151.891077 Z M29.6100161,94.8122462 C29.6100161,106.137292 31.4028774,114.506462 34.9586774,119.957138 C39.9881645,127.660862 46.6384581,131.494031 54.9793774,131.494031 C61.3479,131.494031 66.8012903,128.75 71.3046387,123.299323 C75.8079871,117.848646 78.0596613,109.230246 78.0596613,97.484 C78.0596613,85.0000308 75.7730774,75.9604308 71.2348194,70.4399692 C66.731471,64.9170154 60.9239968,62.1405846 53.8173839,62.1405846 C46.8853194,62.1405846 41.1152484,64.8472308 36.5046774,70.2281231 C31.8966,75.6439077 29.6100161,83.8037231 29.6100161,94.8122462 L29.6100161,94.8122462 Z M158.778316,151.891077 L129.820739,151.891077 L129.820739,42.4812615 L156.703684,42.4812615 L156.703684,58.0257846 C161.311761,50.6759692 165.463519,45.8209538 169.124048,43.5006154 C172.819487,41.1802769 176.971245,39.9839692 181.649142,39.9839692 C188.264526,39.9839692 194.598139,41.8133231 200.722294,45.4695385 L191.748013,70.6867077 C186.893074,67.5563692 182.354816,65.9737538 178.165655,65.9737538 C174.08621,65.9737538 170.672542,67.0628923 167.857326,69.3134462 C165.0072,71.5291077 162.825345,75.5741231 161.207032,81.4136 C159.588719,87.2505846 158.778316,99.4903077 158.778316,118.092892 L158.778316,151.891077 L158.778316,151.891077 Z M271.868216,151.891077 L271.868216,0.839784615 L300.825794,0.839784615 L300.825794,151.891077 L271.868216,151.891077 L271.868216,151.891077 Z M330.523955,151.891077 L330.523955,0.839784615 L359.481532,0.839784615 L359.481532,151.891077 L330.523955,151.891077 L330.523955,151.891077 Z M469.474445,75.8557538 L443.189952,71.1079077 C446.1473,60.5230769 451.211697,52.7146769 458.425532,47.6154154 C465.674277,42.5510462 476.3716,39.9839692 490.587319,39.9839692 C503.536316,39.9839692 513.141465,41.5316923 519.475077,44.5897538 C525.773781,47.6503077 530.242219,51.5183692 532.810574,56.2313231 C535.378929,60.9442769 536.680561,69.5601846 536.680561,82.1513231 L536.363881,115.949508 C536.363881,125.549877 536.822694,132.652954 537.772735,137.226338 C538.685374,141.762338 540.445819,146.687138 542.979265,151.891077 L514.303458,151.891077 C513.562874,149.957046 512.612832,147.108338 511.523152,143.344954 C511.064339,141.622769 510.712748,140.496246 510.50329,139.932985 C505.541129,144.750615 500.262287,148.339538 494.631855,150.764554 C489.003916,153.157169 482.986984,154.353477 476.583552,154.353477 C465.322687,154.353477 456.420719,151.292923 449.947468,145.2092 C443.436813,139.090585 440.200187,131.351969 440.200187,121.998338 C440.200187,115.842338 441.676368,110.321877 444.633716,105.466862 C447.588571,100.614338 451.740329,96.9232308 457.054081,94.3536615 C462.367832,91.7865846 470.072897,89.5360308 480.101948,87.602 C493.611994,85.0698154 503.007684,82.6796923 508.214213,80.4989231 L508.214213,77.6153231 C508.214213,72.0225846 506.842761,68.0822462 504.097365,65.6921231 C501.354461,63.3368923 496.180348,62.1405846 488.545103,62.1405846 C483.373484,62.1405846 479.361365,63.1599385 476.476329,65.1986462 C473.591294,67.2049538 471.2698,70.7564923 469.474445,75.8557538 L469.474445,75.8557538 Z M508.214213,99.3482462 C504.521268,100.579446 498.643974,102.057385 490.587319,103.779569 C482.563081,105.504246 477.321642,107.191538 474.823106,108.809046 C471.057848,111.518185 469.157765,114.892769 469.157765,119.007569 C469.157765,123.087477 470.671348,126.569231 473.696023,129.522615 C476.72319,132.478492 480.558268,133.953938 485.238658,133.953938 C490.480097,133.953938 495.442258,132.231754 500.192468,128.819785 C503.710865,126.217815 505.997448,123.017692 507.089623,119.219415 C507.862623,116.757015 508.214213,112.044062 508.214213,105.115446 L508.214213,99.3482462 L508.214213,99.3482462 Z M664.829,151.891077 L635.871423,151.891077 L635.871423,96.0434462 C635.871423,84.2249231 635.238061,76.5934769 634.006248,73.1117231 C632.774435,69.6648615 630.732219,66.9582154 627.954406,65.0241846 C625.1741,63.1250462 621.830252,62.1405846 617.925355,62.1405846 C612.893374,62.1405846 608.390026,63.5113538 604.412816,66.2553846 C600.4381,69.0318154 597.692703,72.6556308 596.216523,77.1916308 C594.737848,81.7301231 593.999758,90.0992923 593.999758,102.339015 L593.999758,151.891077 L565.039687,151.891077 L565.039687,42.4812615 L591.922632,42.4812615 L591.922632,58.5516615 C601.492871,46.1723692 613.526735,39.9839692 628.024226,39.9839692 C634.392748,39.9839692 640.267548,41.1428923 645.54639,43.4308308 C650.825232,45.7511692 654.834858,48.6696615 657.545345,52.2585846 C660.255832,55.8450154 662.155916,59.8900308 663.210687,64.4260308 C664.300368,68.9620308 664.829,75.4345538 664.829,83.8735077 L664.829,151.891077 L664.829,151.891077 Z M744.385661,42.4812615 L744.385661,65.5500615 L724.611823,65.5500615 L724.611823,109.653938 C724.611823,118.586369 724.786371,123.790308 725.175365,125.268246 C725.561865,126.746185 726.404684,127.94 727.743719,128.926954 C729.080261,129.876523 730.733484,130.367508 732.633568,130.367508 C735.344055,130.367508 739.214042,129.417938 744.315842,127.588585 L746.779468,150.026831 C740.021952,152.910431 732.421616,154.353477 723.871239,154.353477 C718.66471,154.353477 713.94941,153.473692 709.762742,151.751508 C705.576074,149.991938 702.513997,147.706492 700.544094,144.927569 C698.57419,142.148646 697.235155,138.385262 696.462155,133.637415 C695.863703,130.297723 695.547023,123.473785 695.547023,113.240369 L695.547023,65.5500615 L682.246435,65.5500615 L682.246435,42.4812615 L695.547023,42.4812615 L695.547023,20.7109538 L724.611823,3.83055385 L724.611823,42.4812615 L744.385661,42.4812615 L744.385661,42.4812615 Z" id="Shape" fill="#000000"></path>
                <path d="M416.149913,166.927169 L416.149913,193.726954 L387.192335,193.726954 L387.192335,166.927169 L416.149913,166.927169 L416.149913,166.927169 Z M416.149913,42.6756615 L416.149913,152.085477 L387.192335,152.085477 L387.192335,42.6756615 L416.149913,42.6756615 L416.149913,42.6756615 Z" id="Shape" fill="#B0CB1F"></path>
                <path d="M213.142658,27.7442462 L213.142658,0.944461538 L242.100235,0.944461538 L242.100235,27.7442462 L213.142658,27.7442462 L213.142658,27.7442462 Z M213.142658,151.995754 L213.142658,42.5859385 L242.100235,42.5859385 L242.100235,151.995754 L213.142658,151.995754 L213.142658,151.995754 Z" id="Shape" fill="#66C3D0"></path>
            </g>
        </g>
    </g>
</svg>